<svg xmlns="http://www.w3.org/2000/svg" viewBox="0 0 400 800">
  <defs>
    <linearGradient id="glow" x1="50%" x2="50%" y1="0%" y2="100%">
      <stop offset="0%" stop-color="#38bdf8" stop-opacity="0.8" />
      <stop offset="100%" stop-color="#0ea5e9" stop-opacity="0.2" />
    </linearGradient>
    <filter id="blur" x="-20%" y="-20%" width="140%" height="140%">
      <feGaussianBlur stdDeviation="18" result="colored" />
    </filter>
  </defs>
  <g transform="translate(80 20)">
    <path d="M120 0c20 24 52 38 60 70 8 32-10 54-28 76-12 14-22 34-20 54 2 22 18 40 26 60 12 32 6 66 0 98-4 24-8 44-6 70 2 28 12 58 20 86 8 28 12 58 8 88-4 36-18 70-32 104l-28 58-30-58c-16-32-30-66-34-102-4-32 6-64 12-96 6-32 8-66 0-98-6-26-22-46-24-72-2-22 10-42 18-62 8-20 12-42 4-64-8-24-32-44-38-70-6-30 6-60 26-82 22-24 54-36 86-38z" fill="url(#glow)" opacity="0.8" filter="url(#blur)" />
    <path d="M120 0c20 24 52 38 60 70 8 32-10 54-28 76-12 14-22 34-20 54 2 22 18 40 26 60 12 32 6 66 0 98-4 24-8 44-6 70 2 28 12 58 20 86 8 28 12 58 8 88-4 36-18 70-32 104l-28 58-30-58c-16-32-30-66-34-102-4-32 6-64 12-96 6-32 8-66 0-98-6-26-22-46-24-72-2-22 10-42 18-62 8-20 12-42 4-64-8-24-32-44-38-70-6-30 6-60 26-82 22-24 54-36 86-38z" fill="rgba(15, 118, 230, 0.55)" stroke="rgba(191, 219, 254, 0.25)" stroke-width="6" stroke-linejoin="round" />
  </g>
</svg>
