<svg xmlns="http://www.w3.org/2000/svg" viewBox="0 0 1600 900" fill="none">
  <defs>
    <linearGradient id="shadow" x1="0" x2="0" y1="0" y2="1">
      <stop offset="0" stop-color="#ffffff" stop-opacity="0.95" />
      <stop offset="1" stop-color="#d4d7dd" stop-opacity="0.9" />
    </linearGradient>
  </defs>
  <g fill="url(#shadow)" stroke="#d1d5db" stroke-width="6" stroke-linejoin="round">
    <path d="M248 360l46-62 86-48 102-18 78 32 42-12 48-74 82-28 144 28 70 70-8 82-90 64-44 78-106 28-90-20-64-36-98-12-74-56-56-44z" />
    <path d="M762 228l112-70 110-20 90 14 96 58 88 20 90 102-34 90-124 50-98-8-128-96-78-62-24-58z" />
    <path d="M1150 510l128-50 80 12 78 48 56 116-30 82-68 56-84 18-90-32-54-96 10-96 24-58z" />
    <path d="M320 586l102-12 66 44 32 96-44 80-122 34-118-44-54-64 12-74 126-60z" />
    <path d="M470 692l84-32 72 24 52 66 14 82-74 52-90-20-50-54 34-118z" />
    <path d="M998 660l108-26 88 46 18 78-46 60-118 38-92-38-22-86 64-72z" />
    <path d="M1058 288l58-66 112-24 80 48 40 90-60 76-106-18-60-42-64-64z" />
    <path d="M138 524l-78-36-28-80 22-80 94-64 110-20 48 72-10 98-74 64-84 46z" />
    <path d="M1312 326l82-62 88 18 70 74 18 92-66 70-94 12-68-74-30-130z" />
    <path d="M1340 672l64-20 66 34 48 86-24 74-96 40-82-52 24-102z" />
    <path d="M180 214l46-64 112-48 96 34-28 70-88 28-108-20-30-0z" />
  </g>
</svg>
